<svg width="729" height="224" viewBox="0 0 729 224" fill="none" xmlns="http://www.w3.org/2000/svg">
<path d="M209.139 78.2698C215.789 83.2315 223.249 85.7124 231.518 85.7124C239.03 85.7124 242.786 83.4727 242.786 78.9934C242.786 75.5822 238.513 72.4466 229.968 69.5867L224.592 67.8294C218.252 65.6931 213.894 63.7463 211.516 61.989C207.657 59.0946 205.727 54.9771 205.727 49.6363C205.727 43.7097 208.329 38.9719 213.532 35.4229C217.667 32.5975 222.87 31.1847 229.141 31.1847C238.651 31.1847 247.196 33.545 254.777 38.2656L248.213 48.861C242.631 44.6228 236.583 42.5038 230.071 42.5038C227.383 42.5038 225.178 42.9862 223.455 43.9509C221.319 45.1225 220.251 46.8281 220.251 49.0678C220.251 50.7906 221.181 52.2722 223.042 53.5127C224.524 54.5464 227.228 55.649 231.156 56.8205L236.893 58.4744C250.711 62.5748 257.619 69.2249 257.619 78.4248C257.619 83.042 255.931 87.1596 252.554 90.7775C248.281 95.3603 240.873 97.6516 230.33 97.6516C220.061 97.6516 210.81 94.6539 202.575 88.6585L209.139 78.2698ZM290.284 13.7152V33.2005H309.769V43.0206H290.284V76.9777C290.284 80.3199 290.68 82.6285 291.473 83.9034C292.541 85.6607 294.316 86.5394 296.796 86.5394C299.863 86.5394 303.016 85.3334 306.255 82.9214L309.563 92.5348C304.532 95.7393 299.226 97.3415 293.644 97.3415C287.855 97.3415 283.479 95.6187 280.516 92.173C278.069 89.3131 276.846 85.1783 276.846 79.7686V43.0206H262.891V33.2005H276.846V19.8657L290.284 13.7152ZM360.214 55.425V54.443C360.214 45.9322 356.165 41.6768 348.068 41.6768C340.487 41.6768 333.665 43.9682 327.601 48.5509L322.329 38.9892C330.288 33.7862 339.023 31.1847 348.533 31.1847C357.699 31.1847 364.538 33.8207 369.052 39.0925C372.188 42.7105 373.755 48.0513 373.755 55.1149V76.926C373.755 84.9888 374.996 91.2255 377.477 95.6359H364.866C363.384 92.776 362.402 89.5026 361.92 85.8158H361.558C359.8 89.2615 356.975 92.173 353.081 94.5505C349.911 96.4801 345.725 97.4449 340.522 97.4449C334.354 97.4449 329.255 95.6359 325.223 92.018C321.019 88.2278 318.918 83.4038 318.918 77.5462C318.918 62.7987 330.84 55.425 354.684 55.425H360.214ZM360.214 65.1418H356.079C348.016 65.1418 341.969 66.1755 337.938 68.2429C334.492 70.0002 332.769 73.0324 332.769 77.3394C332.769 80.2338 333.803 82.5252 335.87 84.2136C337.834 85.833 340.384 86.6427 343.52 86.6427C347.689 86.6427 351.427 85.1611 354.735 82.1978C358.388 78.9589 360.214 74.7897 360.214 69.6901V65.1418ZM393.602 5.1355H407.351V57.8542L431.281 33.2005H448.957L425.027 57.5441L451.283 95.6359H434.33L415.827 65.5036L407.351 73.5148V95.6359H393.602V5.1355ZM463.481 5.1355H477.229V57.8542L501.159 33.2005H518.835L494.905 57.5441L521.161 95.6359H504.208L485.705 65.5036L477.229 73.5148V95.6359H463.481V5.1355Z" fill="black" style="fill:black;fill-opacity:1;"/>
<path d="M199.732 143.125H214.876L227.125 177.031C228.572 180.959 229.847 185.214 230.95 189.797H231.363C232.397 185.455 233.672 181.2 235.188 177.031L247.489 143.125H262.633L236.583 206.646H225.781L199.732 143.125ZM329.048 177.031H282.48C282.721 182.509 284.444 186.954 287.648 190.365C291.507 194.397 296.417 196.412 302.378 196.412C309.408 196.412 315.627 193.122 321.037 186.541L329.306 194.914C322.518 203.459 313.112 207.732 301.086 207.732C291.232 207.732 283.289 204.579 277.259 198.273C271.505 192.209 268.628 184.387 268.628 174.808C268.628 167.021 270.506 160.25 274.262 154.496C277.604 149.396 282.066 145.692 287.648 143.384C291.473 141.799 295.556 141.006 299.898 141.006C306.823 141.006 312.733 142.936 317.625 146.795C322.691 150.723 326.102 156.219 327.859 163.282C328.652 166.487 329.048 169.864 329.048 173.413V177.031ZM315.196 166.952C314.921 163.403 313.99 160.44 312.405 158.062C309.408 153.686 305.1 151.498 299.484 151.498C294.453 151.498 290.319 153.531 287.08 157.597C285.081 160.112 283.841 163.231 283.358 166.952H315.196ZM358.922 143.125V153.927C364.71 145.933 371.946 141.937 380.629 141.937C386.728 141.937 391.793 143.694 395.825 147.208C400.373 151.171 402.647 157.649 402.647 166.642V205.561H388.692V168.399C388.692 163.506 387.779 159.751 385.953 157.132C384.196 154.617 381.232 153.359 377.063 153.359C372.791 153.359 368.914 155.151 365.434 158.734C362.884 161.353 360.92 164.73 359.542 168.864V205.561H345.587V143.125H358.922ZM440.791 123.64V143.125H460.276V152.945H440.791V186.902C440.791 190.245 441.187 192.553 441.98 193.828C443.048 195.586 444.822 196.464 447.303 196.464C450.37 196.464 453.523 195.258 456.761 192.846L460.069 202.46C455.039 205.664 449.732 207.266 444.15 207.266C438.362 207.266 433.986 205.544 431.022 202.098C428.576 199.238 427.353 195.103 427.353 189.693V152.945H413.398V143.125H427.353V129.791L440.791 123.64ZM473.559 143.125H487.617V180.39C487.617 190.417 491.528 195.43 499.35 195.43C503.554 195.43 507.378 193.604 510.824 189.952C513.339 187.299 515.286 183.939 516.664 179.873V143.125H530.723V205.561H517.595V194.448C511.875 202.649 504.449 206.749 495.318 206.749C487.772 206.749 482.035 204.148 478.107 198.945C475.075 194.914 473.559 189.366 473.559 182.302V143.125ZM561.475 161.835H561.889C566.471 148.156 573.518 141.316 583.028 141.316C585.784 141.316 588.438 141.85 590.987 142.919L587.421 155.943C585.492 155.288 583.51 154.961 581.477 154.961C576.205 154.961 571.812 157.614 568.298 162.921C565.955 166.401 564.318 170.88 563.388 176.359V205.561H549.639V143.125H562.664L561.475 161.835ZM658.488 177.031H611.92C612.161 182.509 613.884 186.954 617.088 190.365C620.947 194.397 625.858 196.412 631.819 196.412C638.848 196.412 645.067 193.122 650.477 186.541L658.746 194.914C651.958 203.459 642.552 207.732 630.526 207.732C620.672 207.732 612.73 204.579 606.7 198.273C600.945 192.209 598.068 184.387 598.068 174.808C598.068 167.021 599.946 160.25 603.702 154.496C607.044 149.396 611.506 145.692 617.088 143.384C620.913 141.799 624.996 141.006 629.338 141.006C636.263 141.006 642.173 142.936 647.066 146.795C652.131 150.723 655.542 156.219 657.299 163.282C658.092 166.487 658.488 169.864 658.488 173.413V177.031ZM644.636 166.952C644.361 163.403 643.43 160.44 641.845 158.062C638.848 153.686 634.541 151.498 628.924 151.498C623.894 151.498 619.759 153.531 616.52 157.597C614.521 160.112 613.281 163.231 612.798 166.952H644.636ZM675.234 188.195C681.884 193.156 689.344 195.637 697.614 195.637C705.125 195.637 708.881 193.398 708.881 188.918C708.881 185.507 704.608 182.371 696.063 179.512L690.688 177.754C684.348 175.618 679.989 173.671 677.611 171.914C673.752 169.019 671.823 164.902 671.823 159.561C671.823 153.635 674.424 148.897 679.627 145.348C683.762 142.522 688.965 141.11 695.236 141.11C704.746 141.11 713.291 143.47 720.872 148.19L714.308 158.786C708.726 154.548 702.679 152.429 696.166 152.429C693.479 152.429 691.274 152.911 689.551 153.876C687.414 155.047 686.346 156.753 686.346 158.993C686.346 160.715 687.277 162.197 689.137 163.437C690.619 164.471 693.324 165.574 697.252 166.745L702.989 168.399C716.806 172.5 723.714 179.15 723.714 188.35C723.714 192.967 722.026 197.084 718.649 200.702C714.377 205.285 706.969 207.576 696.425 207.576C686.157 207.576 676.905 204.579 668.67 198.583L675.234 188.195Z" fill="black" style="fill:black;fill-opacity:1;"/>
<path d="M6 215.623V182.876L133.428 140.23V173.525L6 215.623Z" stroke="black" style="stroke:black;stroke-opacity:1;" stroke-width="11.5053"/>
<path d="M6 158.11V125.362L133.428 82.7168V116.012L6 158.11Z" stroke="black" style="stroke:black;stroke-opacity:1;" stroke-width="11.5053"/>
<path d="M6 100.597V67.8497L133.428 25.2041V58.499L6 100.597Z" stroke="black" style="stroke:black;stroke-opacity:1;" stroke-width="11.5053"/>
</svg>
